<svg width="156" height="48" viewBox="0 0 156 48" fill="none" xmlns="http://www.w3.org/2000/svg">
<g clip-path="url(#clip0_1968_183)">
<path d="M63.4178 35.1015H65.9874L65.7655 36.1431H63.1958L63.4178 35.1015Z" fill="#656F6F"/>
<path d="M71.7632 31.8574H73.1377L74.1536 37.9529H72.8218L72.6255 36.5955H70.3461L69.5777 37.9529H68.1605L71.7632 31.8574ZM70.8754 35.5967H72.506L72.2072 33.1721H72.1901L70.8754 35.5967Z" fill="#656F6F"/>
<path d="M75.4817 33.5392H76.6428L76.5062 34.1624H76.5233C76.8904 33.6588 77.4282 33.4197 78.0685 33.4197C78.6063 33.4197 79.0332 33.6502 79.1356 34.1881C79.4344 33.7271 80.0662 33.4197 80.6296 33.4197C81.3212 33.4197 81.97 33.7783 81.97 34.5381C81.97 34.8113 81.9017 35.093 81.8419 35.3576L81.2955 37.9529H80.0833L80.6638 35.1613C80.6894 35.0332 80.6979 34.9393 80.6979 34.8454C80.6979 34.5808 80.476 34.3759 80.1686 34.3759C79.5284 34.3759 79.1442 35.0503 79.0332 35.5882L78.538 37.9529H77.3172L77.8978 35.1613C77.9234 35.0332 77.9319 34.9393 77.9319 34.8454C77.9319 34.5808 77.7099 34.3759 77.4026 34.3759C76.7623 34.3759 76.3781 35.0503 76.2672 35.5882L75.772 37.9529H74.5597L75.4817 33.5392Z" fill="#656F6F"/>
<path d="M82.9195 34.8796C83.0817 33.7697 84.0123 33.4197 85.0111 33.4197C85.7966 33.4197 86.8722 33.5905 86.8466 34.5808C86.8466 34.7771 86.8125 35.0503 86.7527 35.3235L86.36 37.0992C86.3173 37.2614 86.3002 37.5261 86.3002 37.6968C86.3002 37.7822 86.3173 37.8676 86.3429 37.9529H85.1307V37.5175C84.7977 37.8932 84.2855 38.0725 83.7818 38.0725C82.8256 38.0725 82.3475 37.5261 82.3475 36.9114C82.3475 36.0577 82.9793 35.5369 84.0379 35.4089C85.1733 35.2723 85.7197 35.3406 85.7197 34.7686C85.7197 34.3247 85.2587 34.2307 84.9514 34.2307C84.516 34.2307 84.1318 34.4356 84.055 34.8796H82.9195ZM85.4807 35.8357C85.1733 36.015 84.8062 36.0235 84.4562 36.0492C84.0038 36.0918 83.5598 36.2199 83.5598 36.7663C83.5598 37.0992 83.8757 37.2614 84.2257 37.2614C84.977 37.2614 85.2246 36.7407 85.3612 36.2626L85.4807 35.8357Z" fill="#656F6F"/>
<path d="M88.1291 33.5392H89.2901L89.1535 34.1539H89.1706C89.5633 33.6673 90.0755 33.4197 90.7158 33.4197C91.561 33.4197 92.0049 33.8295 92.0049 34.6064C92.0049 34.7942 91.9025 35.2125 91.8769 35.3662L91.3305 37.9529H90.1182L90.6561 35.3662C90.6817 35.2296 90.7329 34.9479 90.7329 34.8283C90.7329 34.5637 90.4341 34.3759 90.1524 34.3759C89.4182 34.3759 89.0511 34.9906 88.9145 35.6052L88.4193 37.9529H87.207L88.1291 33.5392Z" fill="#656F6F"/>
<path d="M96.1595 31.8574H98.0121L98.4816 36.2711H98.4987L100.846 31.8574H102.716L101.427 37.9529H100.172L101.282 33.1038H101.265L98.6865 37.9529H97.662L97.073 33.1038H97.0559L96.1424 37.9529H94.8704L96.1595 31.8574Z" fill="#656F6F"/>
<path d="M104.844 32.8563H103.623L103.845 31.8574H105.066L104.844 32.8563ZM103.486 33.5392H104.707L103.768 37.9529H102.547L103.486 33.5392Z" fill="#656F6F"/>
<path d="M107.232 33.5392H108.103L107.915 34.3503H107.053L106.601 36.5443C106.575 36.6382 106.566 36.7151 106.566 36.7492C106.566 37.0651 106.797 37.0736 106.976 37.0736C107.121 37.0736 107.266 37.0651 107.412 37.048L107.207 37.9871C106.959 38.0127 106.712 38.0298 106.447 38.0298C105.883 38.0298 105.269 37.8505 105.294 37.1334C105.294 37.0224 105.32 36.8773 105.354 36.7151L105.849 34.3503H105.055L105.243 33.5392H106.02L106.293 32.1989H107.506L107.232 33.5392Z" fill="#656F6F"/>
<path d="M110.392 33.5392H111.263L111.075 34.3503H110.213L109.76 36.5443C109.735 36.6382 109.726 36.7151 109.726 36.7492C109.726 37.0651 109.957 37.0736 110.136 37.0736C110.281 37.0736 110.426 37.0651 110.571 37.048L110.366 37.9871C110.119 38.0127 109.871 38.0298 109.607 38.0298C109.043 38.0298 108.429 37.8505 108.454 37.1334C108.454 37.0224 108.48 36.8773 108.514 36.7151L109.009 34.3503H108.215L108.403 33.5392H109.18L109.453 32.1989H110.665L110.392 33.5392Z" fill="#656F6F"/>
<path d="M111.691 34.8796C111.853 33.7697 112.783 33.4197 113.782 33.4197C114.568 33.4197 115.643 33.5905 115.618 34.5808C115.618 34.7771 115.584 35.0503 115.524 35.3235L115.131 37.0992C115.088 37.2614 115.071 37.5261 115.071 37.6968C115.071 37.7822 115.088 37.8676 115.114 37.9529H113.902V37.5175C113.569 37.8932 113.057 38.0725 112.553 38.0725C111.597 38.0725 111.119 37.5261 111.119 36.9114C111.119 36.0577 111.75 35.5369 112.809 35.4089C113.945 35.2723 114.491 35.3406 114.491 34.7686C114.491 34.3247 114.03 34.2307 113.723 34.2307C113.287 34.2307 112.903 34.4356 112.826 34.8796H111.691ZM114.252 35.8357C113.945 36.015 113.577 36.0235 113.227 36.0492C112.775 36.0918 112.331 36.2199 112.331 36.7663C112.331 37.0992 112.647 37.2614 112.997 37.2614C113.748 37.2614 113.996 36.7407 114.132 36.2626L114.252 35.8357Z" fill="#656F6F"/>
<path d="M117.276 31.8574H118.488L117.19 37.9529H115.978L117.276 31.8574Z" fill="#656F6F"/>
<path d="M71.7401 26.2145L71.3645 24.3129C70.0497 26.0032 68.3829 26.6136 66.7629 26.6136C61.598 26.6136 58.5225 22.7399 58.5225 17.9036C58.5225 12.9265 61.598 9.05273 66.7629 9.05273C70.1906 9.05273 73.4539 11.1422 73.8296 14.969H70.308C69.8619 13.0908 68.5237 12.1517 66.7629 12.1517C63.4527 12.1517 62.2084 14.969 62.2084 17.9036C62.2084 20.6974 63.4527 23.5147 66.7629 23.5147C69.1811 23.5147 70.5428 22.2469 70.7541 19.8992H67.0447V17.1523H74.0878V26.2145H71.7401Z" fill="#F16B0C"/>
<path d="M76.8062 26.2145V9.45184H80.14V26.2145H76.8062Z" fill="#F16B0C"/>
<path d="M85.7231 20.1574C85.7231 22.106 86.4039 24.0311 88.6578 24.0311C90.935 24.0311 91.6159 22.106 91.6159 20.1574C91.6159 18.2088 90.935 16.2602 88.6578 16.2602C86.4039 16.2602 85.7231 18.2088 85.7231 20.1574ZM82.3894 20.1574C82.3894 16.2837 84.8545 13.7482 88.6578 13.7482C92.4845 13.7482 94.9496 16.2837 94.9496 20.1574C94.9496 24.0077 92.4845 26.5432 88.6578 26.5432C84.8545 26.5432 82.3894 24.0077 82.3894 20.1574Z" fill="#F16B0C"/>
<path d="M96.5303 22.2704H99.6997C99.6997 23.7025 100.967 24.3129 102.259 24.3129C103.198 24.3129 104.442 23.9372 104.442 22.7634C104.442 21.7539 103.033 21.3782 100.662 20.8852C98.7137 20.4391 96.812 19.8053 96.812 17.6454C96.812 14.5464 99.4884 13.7482 102.094 13.7482C104.724 13.7482 107.189 14.6403 107.447 17.6219H104.278C104.184 16.3306 103.198 15.9785 102 15.9785C101.249 15.9785 100.146 16.0959 100.146 17.1054C100.146 18.3027 102.047 18.4671 103.926 18.9131C105.874 19.3592 107.776 20.0635 107.776 22.3173C107.776 25.5102 104.982 26.5432 102.235 26.5432C99.418 26.5432 96.6477 25.4867 96.5303 22.2704Z" fill="#F16B0C"/>
<path d="M109.14 22.2704H112.31C112.31 23.7025 113.577 24.3129 114.869 24.3129C115.808 24.3129 117.052 23.9372 117.052 22.7634C117.052 21.7539 115.643 21.3782 113.272 20.8852C111.323 20.4391 109.422 19.8053 109.422 17.6454C109.422 14.5464 112.098 13.7482 114.704 13.7482C117.334 13.7482 119.799 14.6403 120.057 17.6219H116.888C116.794 16.3306 115.808 15.9785 114.61 15.9785C113.859 15.9785 112.756 16.0959 112.756 17.1054C112.756 18.3027 114.657 18.4671 116.535 18.9131C118.484 19.3592 120.386 20.0635 120.386 22.3173C120.386 25.5102 117.592 26.5432 114.845 26.5432C112.028 26.5432 109.257 25.4867 109.14 22.2704Z" fill="#F16B0C"/>
<path d="M125.53 17.8097H122.196C122.384 14.7107 125.178 13.7482 127.901 13.7482C130.319 13.7482 133.23 14.2881 133.23 17.1993V23.5147C133.23 24.6181 133.348 25.7215 133.653 26.2145H130.272C130.155 25.8389 130.061 25.4398 130.037 25.0407C128.981 26.1441 127.455 26.5432 125.952 26.5432C123.628 26.5432 121.82 25.3928 121.82 22.9042C121.867 17.3871 130.037 20.3452 129.896 17.6219C129.896 16.2133 128.91 15.9785 127.737 15.9785C126.445 15.9785 125.647 16.495 125.53 17.8097ZM129.896 21.5191V20.2748C129.333 20.7678 128.159 20.7913 127.126 20.9791C126.093 21.1669 125.154 21.5426 125.154 22.7634C125.154 23.9842 126.117 24.3129 127.197 24.3129C129.803 24.3129 129.896 22.2704 129.896 21.5191Z" fill="#F16B0C"/>
<path d="M135.818 26.2145V14.0768H138.987V16.3306H139.034C139.668 14.8046 141.241 13.7482 142.908 13.7482C143.166 13.7482 143.401 13.7951 143.636 13.8655V16.9645C143.331 16.8941 142.837 16.8471 142.438 16.8471C139.973 16.8471 139.152 18.5845 139.152 20.7443V26.2145H135.818Z" fill="#F16B0C"/>
<path d="M156 14.0768L150.929 27.7405C150.202 29.6891 149.028 30.4874 146.75 30.4874C146.07 30.4874 145.389 30.4404 144.708 30.37V27.6232C145.342 27.6936 145.999 27.764 146.657 27.7405C147.525 27.6466 147.948 26.9658 147.948 26.2145C147.948 25.9563 147.901 25.698 147.807 25.4633L143.534 14.0768H147.103L149.849 22.3877H149.896L152.549 14.0768H156Z" fill="#F16B0C"/>
<path d="M24.6958 9V27.0048C24.6958 34.8313 20.073 38.6431 12.3276 38.6431C4.50121 38.6431 0 34.9124 0 27.0048V9H6.36657V27.0048C6.36657 30.1678 7.1776 33.2903 12.3276 33.2903C16.8694 33.2903 18.3292 31.3438 18.3292 27.0048V9H24.6958Z" fill="#0C3636"/>
<path d="M27.1375 37.9537L37.2753 22.7875L27.9485 9H35.3288L41.006 18.2457L46.886 9H53.8608L44.5746 22.828L54.6719 37.9537H47.0888L40.7627 27.9375L34.3151 37.9537H27.1375Z" fill="#0C3636"/>
</g>
<defs>
<clipPath id="clip0_1968_183">
<rect width="156" height="48" fill="white"/>
</clipPath>
</defs>
</svg>
